<svg width="40" height="40" viewBox="0 0 40 40" fill="none" xmlns="http://www.w3.org/2000/svg">
<g clip-path="url(#clip0_427_555)">
<path d="M20 0C14.6957 0 9.60859 2.10714 5.85786 5.85786C2.10714 9.60859 0 14.6957 0 20C0.000707684 20.683 0.0377973 21.3654 0.111111 22.0444C0.631091 26.9568 2.95065 31.503 6.62288 34.807C10.2951 38.1111 15.0602 39.9392 20 39.9392C24.9398 39.9392 29.7049 38.1111 33.3771 34.807C37.0494 31.503 39.3689 26.9568 39.8889 22.0444C39.9622 21.3654 39.9993 20.683 40 20C40 14.6957 37.8929 9.60859 34.1421 5.85786C30.3914 2.10714 25.3043 0 20 0ZM32.0444 29.8222C32.0222 29.8222 31.9111 30 31.8889 30C30.4341 31.7391 28.6155 33.1379 26.5613 34.0977C24.5071 35.0575 22.2674 35.5549 20 35.5549C17.7326 35.5549 15.4929 35.0575 13.4387 34.0977C11.3845 33.1379 9.56589 31.7391 8.11111 30C8.08889 30 7.97778 29.8222 7.95556 29.8222C7.83352 29.6451 7.76418 29.4371 7.75556 29.2222C7.7597 28.9891 7.83401 28.7626 7.96878 28.5723C8.10356 28.3821 8.29256 28.2368 8.51111 28.1556C10.1556 27.6 11.7333 27.0667 12.1778 26.9556C12.1674 26.9054 12.1681 26.8537 12.1796 26.8038C12.1911 26.754 12.2132 26.7072 12.2444 26.6667C12.3027 26.4516 12.4256 26.2595 12.5965 26.1165C12.7673 25.9734 12.978 25.8862 13.2 25.8667L16.0222 25.6444C15.9984 25.0372 15.8549 24.4406 15.6 23.8889V23.8667C15.3619 23.239 15.0242 22.6537 14.6 22.1333C13.4379 20.6173 12.8195 18.7545 12.8444 16.8444C12.7215 14.8803 13.3745 12.9463 14.6627 11.4585C15.951 9.97079 17.7718 9.04808 19.7333 8.88889H20.2667C22.2282 9.04808 24.049 9.97079 25.3373 11.4585C26.6255 12.9463 27.2785 14.8803 27.1556 16.8444C27.1805 18.7545 26.5621 20.6173 25.4 22.1333C24.9758 22.6537 24.6381 23.239 24.4 23.8667V23.8889C24.1451 24.4406 24.0016 25.0372 23.9778 25.6444L26.8 25.8667C27.022 25.8862 27.2327 25.9734 27.4035 26.1165C27.5744 26.2595 27.6973 26.4516 27.7556 26.6667C27.7868 26.7072 27.8089 26.754 27.8204 26.8038C27.8319 26.8537 27.8326 26.9054 27.8222 26.9556C28.2667 27.0667 29.8444 27.6 31.4889 28.1556C31.6518 28.2078 31.8001 28.2978 31.9218 28.4181C32.0435 28.5384 32.1351 28.6857 32.1892 28.848C32.2433 29.0104 32.2584 29.1832 32.2333 29.3524C32.2081 29.5217 32.1434 29.6826 32.0444 29.8222Z" fill="url(#paint0_linear_427_555)"/>
</g>
<defs>
<linearGradient id="paint0_linear_427_555" x1="20" y1="0" x2="20" y2="39.9392" gradientUnits="userSpaceOnUse">
<stop stop-color="#546BEE"/>
<stop offset="1" stop-color="#8F61FF"/>
</linearGradient>
<clipPath id="clip0_427_555">
<rect width="40" height="40" fill="white"/>
</clipPath>
</defs>
</svg>
