<svg width="30" height="30" viewBox="0 0 30 30" fill="none" xmlns="http://www.w3.org/2000/svg">
<path d="M15.1248 0.875C15.7252 0.874387 16.3127 0.930528 16.9022 1.08105C16.9444 1.09175 16.9866 1.10227 17.0301 1.11328L17.0311 1.11426C18.4169 1.4761 19.6839 2.20052 20.7186 3.24609L20.7791 3.30664C22.0091 4.5407 22.7623 6.14193 23.1277 7.875L23.1502 7.97949V7.98047C23.4816 9.63313 23.2235 11.4504 22.5984 12.9883L22.4686 13.292C22.4567 13.3187 22.4447 13.3455 22.4324 13.373V13.374C22.248 13.7823 22.0149 14.1543 21.7811 14.5195L21.7801 14.5186C21.5006 14.9618 21.3393 15.3784 21.4217 15.8896C21.5281 16.3118 21.7893 16.651 22.1356 16.8916C22.6435 17.1943 23.2281 17.2439 23.7957 17.083C24.1994 16.9299 24.5581 16.7185 24.8719 16.4131L24.8748 16.4102C24.9129 16.3751 24.9137 16.3742 24.951 16.3398C25.4351 15.866 25.7632 15.1173 25.7957 14.415C25.7968 14.3841 25.7985 14.3532 25.7996 14.3213L25.8035 14.2236L25.8074 14.0371V14.0342C25.8149 13.7655 25.8811 13.5139 26.0711 13.2998L26.0789 13.29L26.0799 13.291C26.1928 13.1871 26.2981 13.1142 26.4188 13.0713C26.5389 13.0286 26.6641 13.0188 26.8084 13.0225H26.8201V13.0234C26.9946 13.0436 27.1345 13.0962 27.2606 13.1992L27.3826 13.3203L27.3895 13.3281L27.4832 13.4795C27.67 13.8388 27.6384 14.2359 27.6043 14.6074L27.6033 14.6113C27.4378 15.9662 26.8244 17.2063 25.8065 18.0654L25.8026 18.0693L25.8016 18.0684C24.8584 18.8006 23.7717 19.0933 22.6102 18.9346L22.6033 18.9336C21.9667 18.8113 21.386 18.4908 20.8943 18.0654C20.8619 18.038 20.8292 18.0107 20.7957 17.9824L20.7928 17.9795C20.2978 17.5367 19.9231 16.8826 19.8172 16.1953L19.8152 16.1855V16.1846C19.7383 15.1713 19.9516 14.4503 20.4031 13.666L20.6111 13.3252C21.1822 12.4218 21.4767 11.4131 21.617 10.3311V10.3301C21.6221 10.2917 21.6274 10.2534 21.6326 10.2139C21.821 8.44446 21.2783 6.6419 20.2606 5.24316V5.24219C20.1885 5.1462 20.1142 5.05221 20.0389 4.95898L19.8074 4.67969C19.7818 4.64945 19.7557 4.61903 19.7293 4.58789V4.58691C19.2035 3.99975 18.5164 3.53815 17.8182 3.20312H17.8172C17.7888 3.18938 17.7605 3.17529 17.7313 3.16113V3.16016C16.1522 2.40998 14.3119 2.34743 12.6854 2.97754L12.6863 2.97852C10.9606 3.68367 9.62974 5.01786 8.86896 6.81641L8.86993 6.81738C8.19239 8.48379 8.17343 10.3997 8.78497 12.0957C8.99033 12.6443 9.26373 13.1499 9.57306 13.6465H9.57404C10.0757 14.4556 10.342 15.3191 10.1649 16.3105L10.1639 16.3145C9.99251 17.1381 9.49679 17.8114 8.85919 18.2832L8.85431 18.2871C7.94225 18.9011 6.92256 19.1304 5.85724 18.8867L5.85529 18.8857C5.17452 18.7182 4.56724 18.3681 4.03693 17.9014L3.93829 17.8174L3.93634 17.8154C3.02051 16.9891 2.50269 15.713 2.38458 14.4756V14.4736C2.35708 14.1055 2.3403 13.8981 2.36212 13.7529C2.38686 13.5884 2.46148 13.4975 2.56427 13.3672L2.56818 13.3633C2.75899 13.1431 2.96625 13.0494 3.23907 13.0225L3.25079 13.0215L3.26251 13.0225C3.53216 13.0472 3.78006 13.1416 3.98029 13.3604L3.98907 13.3701L3.99493 13.3799C4.14386 13.6265 4.18696 13.8418 4.18829 14.1191L4.21271 14.4561C4.30256 15.2262 4.6215 15.9013 5.159 16.4502C5.72013 16.9576 6.36841 17.2069 7.09357 17.1602L7.21271 17.1436C7.32935 17.1226 7.44091 17.0877 7.55646 17.0391L7.64728 17.001C8.05742 16.806 8.38531 16.4518 8.55157 16.0049C8.65795 15.6071 8.59663 15.217 8.41193 14.8457H8.41095C8.30277 14.6561 8.18643 14.4718 8.06818 14.2842C6.85167 12.345 6.47496 10.038 6.89142 7.76758V7.7666C7.1463 6.46508 7.67674 5.23631 8.46271 4.19727L8.55743 4.07129L8.55841 4.07031C9.73625 2.5336 11.3653 1.50968 13.1746 1.06348L13.2742 1.03809H13.2752C13.7989 0.915106 14.309 0.873117 14.8387 0.875977C14.9335 0.876407 15.0284 0.875519 15.1238 0.875H15.1248Z" fill="#546BEE" stroke="#546BEE" stroke-width="0.25"/>
<path d="M12.882 19.4807C13.1141 19.3182 13.4298 19.2948 13.6906 19.3635L13.798 19.3987L13.8097 19.4026L13.8195 19.4094C14.0215 19.536 14.1553 19.6981 14.2414 19.9153L14.2755 20.012L14.2794 20.0266L14.2804 20.0432C14.4021 22.4838 13.351 25.4621 11.8449 27.2717V27.2727C11.7416 27.3948 11.6348 27.5132 11.5294 27.6311C11.4956 27.6704 11.4964 27.6713 11.4621 27.7112L11.4601 27.7131C10.7659 28.4936 9.72193 29.0678 8.69742 29.1116H8.69547C7.30877 29.1435 6.0769 28.5264 5.08804 27.5383L5.08707 27.5374C4.86967 27.3129 4.7416 27.182 4.67398 27.0608C4.59916 26.9265 4.59741 26.8037 4.59195 26.6292V26.6243L4.60367 26.4387C4.61173 26.38 4.625 26.3237 4.64371 26.2688C4.68149 26.158 4.74167 26.0599 4.82828 25.9602L4.83511 25.9524L4.84293 25.9456C4.97156 25.8388 5.09638 25.7697 5.23355 25.7336C5.33567 25.7069 5.4402 25.6992 5.55093 25.7043L5.66422 25.7141L5.67496 25.7151L5.6857 25.718C5.9648 25.7991 6.13408 26.0017 6.29507 26.1799H6.29605C6.89228 26.8075 7.6881 27.2322 8.51382 27.2336C9.13989 27.2223 9.68739 26.9364 10.1613 26.4817L10.2189 26.426C11.717 24.9681 12.3726 22.4828 12.507 20.3596C12.5111 20.2948 12.5106 20.2939 12.5148 20.2278C12.5169 20.1891 12.5195 20.1504 12.5216 20.1106L12.5226 20.0999L12.5412 20.0032C12.5961 19.7862 12.7247 19.6344 12.8664 19.4944L12.8732 19.4866L12.882 19.4807Z" fill="#546BEE" stroke="#546BEE" stroke-width="0.25"/>
<path d="M16.2316 19.3982C16.4224 19.3294 16.6276 19.3204 16.8214 19.3562L17.0109 19.406L17.0294 19.4128L17.046 19.4255C17.1964 19.5426 17.3067 19.6732 17.3859 19.8367L17.4552 20.0115L17.4581 20.0212L17.4591 20.032C17.4703 20.1133 17.4786 20.1949 17.4845 20.2761C17.4882 20.3227 17.4924 20.3697 17.4962 20.4177C17.5001 20.4674 17.5039 20.517 17.5079 20.5681L17.547 20.9539C17.7702 22.8907 18.3962 24.9476 19.6866 26.323L19.6876 26.324C19.7202 26.3591 19.7527 26.3943 19.7863 26.4304C20.3085 26.9658 20.9327 27.2538 21.6486 27.2419C22.5341 27.201 23.2489 26.6256 23.9259 25.9929V25.9919C24.0411 25.8847 24.1437 25.8066 24.2628 25.7585C24.3531 25.7222 24.4469 25.7052 24.5538 25.7009H24.6779L24.7882 25.7224C25.0313 25.788 25.1797 25.9619 25.3195 26.1404L25.3263 26.1492L25.2218 26.2175L25.3263 26.1501C25.4694 26.3707 25.4476 26.6256 25.4288 26.8279L25.4279 26.8367L25.4259 26.8445C25.3474 27.1812 25.0918 27.4812 24.8156 27.7263C24.5363 27.9741 24.2168 28.1822 23.9874 28.3318L23.9855 28.3337C23.0234 28.9361 21.8345 29.3241 20.6906 29.0173L20.6847 29.0164C18.9651 28.4622 17.8659 27.1262 17.047 25.5134V25.5115C16.7167 24.8424 16.2832 23.8408 15.9865 22.8123C15.6914 21.7898 15.5238 20.7163 15.7491 19.9167L15.7511 19.9089L15.754 19.9021C15.8534 19.6665 15.9959 19.5157 16.2179 19.4041L16.2316 19.3982Z" fill="#546BEE" stroke="#546BEE" stroke-width="0.25"/>
<path d="M1.63965 18.4592C1.82815 18.4314 2.02069 18.469 2.21191 18.5481L2.22461 18.553L2.23535 18.5598C2.43762 18.6991 2.55273 18.8625 2.62598 19.0667L2.68652 19.2854L2.6875 19.2874C2.70543 19.3781 2.72295 19.4694 2.74023 19.5598H2.73926C2.908 20.4231 3.35778 21.1836 4.0459 21.6721C4.84091 22.1835 5.73222 22.3624 6.6416 22.1467C7.61988 21.8886 8.4506 21.1929 8.98047 20.2717C9.1629 19.9396 9.31288 19.5811 9.45605 19.22L9.45703 19.218C9.57154 18.9414 9.72156 18.7492 10.0088 18.6292L10.0215 18.6243L10.0352 18.6213C10.197 18.5929 10.3429 18.5948 10.4932 18.6272L10.6455 18.6702L10.665 18.676L10.6807 18.6887C10.8766 18.839 11.0695 19.0456 11.1357 19.3274L11.1387 19.3391L11.1396 19.3499C11.1617 19.815 10.9806 20.3261 10.7393 20.7893C10.4967 21.2547 10.1838 21.6866 9.92285 22.0022L9.92383 22.0032C9.88354 22.0534 9.88306 22.0533 9.8418 22.1047L9.84082 22.1057C8.93238 23.2152 7.64524 24.0142 6.23535 24.1282H6.2334C4.84946 24.2163 3.57858 23.7969 2.53125 22.8108L2.5293 22.8088C2.46799 22.7483 2.40659 22.6873 2.3457 22.6262L2.26855 22.552L2.2666 22.55V22.5491C1.52495 21.8076 0.979869 20.665 0.876953 19.5862L0.875977 19.5764C0.870304 19.2671 0.881481 19.0109 1.1123 18.7444L1.11719 18.7385H1.11816C1.27498 18.58 1.44947 18.4873 1.63965 18.4592Z" fill="#546BEE" stroke="#4A5568" stroke-width="0.25"/>
<path d="M27.7288 18.5979C27.995 18.4331 28.2639 18.4102 28.5364 18.4993L28.6536 18.5442L28.6614 18.5471L28.6692 18.552C28.8214 18.6477 28.941 18.7916 29.0257 18.9485L29.0989 19.1086L29.1038 19.1223L29.1057 19.137C29.231 20.138 28.7154 21.228 28.2024 21.9885L28.1995 21.9924C27.3758 23.1095 26.2148 23.9166 24.8626 24.1077L24.8596 24.1086C24.1971 24.1841 23.5418 24.1569 22.8929 23.9602V23.9592L22.8167 23.9377C22.021 23.699 21.3124 23.2335 20.6995 22.6692C20.6688 22.6415 20.6383 22.6137 20.6067 22.5852L20.6057 22.5842C19.8163 21.8589 19.1223 20.7572 18.8616 19.6702L18.8587 19.6594L18.8577 19.6487C18.8501 19.5167 18.8557 19.4008 18.8831 19.2883C18.9107 19.1753 18.9593 19.0716 19.0315 18.9612L19.0364 18.9534L19.0432 18.9465C19.1359 18.8431 19.2273 18.7585 19.3362 18.6995C19.4471 18.6394 19.5678 18.6104 19.7132 18.6047L19.72 18.6038V18.6047C19.8411 18.6065 19.9492 18.6215 20.052 18.6633C20.1293 18.6948 20.1989 18.7394 20.2669 18.7971L20.3352 18.8596L20.344 18.8684L20.2493 18.9465L20.344 18.8694C20.5299 19.0959 20.6258 19.3957 20.721 19.6321C21.149 20.6902 21.8879 21.5552 22.885 21.9866L23.1634 22.092L23.1643 22.093C23.1988 22.106 23.2334 22.1188 23.2688 22.1321C24.0206 22.3653 24.9361 22.2497 25.6253 21.8567L25.6272 21.8557C25.6825 21.8257 25.6832 21.8248 25.7395 21.7942C26.3406 21.4469 26.8173 20.8795 27.0823 20.2073L27.1829 19.9124C27.2336 19.7262 27.2799 19.5414 27.3167 19.3538L27.3694 19.1389C27.4316 18.9372 27.528 18.7716 27.7122 18.6096L27.72 18.6028L27.7288 18.5979Z" fill="#546BEE" stroke="#4A5568" stroke-width="0.25"/>
<path d="M17.4807 9.93994C17.6829 9.92787 17.885 9.97072 18.0832 10.0571L18.2805 10.1577L18.2873 10.1616L18.2941 10.1665C18.4954 10.3247 18.6222 10.5193 18.7141 10.7368L18.7961 10.9614L18.799 10.9731L18.801 10.9858C18.8459 11.407 18.7785 11.73 18.5519 12.0854L18.5461 12.0952L18.4465 12.0181L18.5451 12.0952C18.3293 12.3728 18.0226 12.5203 17.6994 12.5649L17.6867 12.5669V12.5659C17.3374 12.5801 17.0603 12.4891 16.7736 12.2925L16.7629 12.2847L16.7541 12.2749C16.4781 11.9813 16.3335 11.6462 16.3127 11.229V11.2183L16.3244 11.0854C16.3663 10.7803 16.5081 10.517 16.7033 10.2954L16.7121 10.2847L16.7971 10.3774L16.7131 10.2847C16.9504 10.0699 17.2096 9.95623 17.4807 9.93994Z" fill="#546BEE" stroke="#4A5568" stroke-width="0.25"/>
<path d="M12.3507 9.93994C12.5435 9.9228 12.7379 9.95345 12.9278 10.0317L13.1163 10.1255L13.127 10.1323H13.1261C13.3459 10.293 13.517 10.5088 13.6212 10.7671L13.6622 10.8804L13.6661 10.894L13.6671 10.9087C13.7014 11.3692 13.6791 11.7263 13.3956 12.1313L13.3907 12.1392C13.1645 12.4147 12.8783 12.5177 12.5685 12.5679L12.5567 12.5698V12.5688C12.1779 12.5926 11.8654 12.4557 11.5851 12.2095L11.5792 12.2046L11.5743 12.1987C11.3371 11.9317 11.2277 11.6003 11.2149 11.2485V11.2397L11.2257 11.0991C11.2621 10.7784 11.3855 10.4973 11.6134 10.2603L11.6192 10.2544L11.6251 10.2495C11.8481 10.0698 12.0941 9.9628 12.3507 9.93994Z" fill="#546BEE" stroke="#4A5568" stroke-width="0.25"/>
</svg>
